ffmpeg started on 2016-12-05 at 17:02:47
Report written to "Output/x264/results/ffmpeg/crowd_run_2160p50faster6000k.log"
Command line:
Tools/ffmpeg/ffmpeg -benchmark -y -i Input/y4m/crowd_run_2160p50.y4m -c:v libx264 -preset faster -b:v 6000k -an Output/x264/encoded/crowd_run_2160p50faster6000k.mkv
ffmpeg version N-82227-gdb23fde Copyright (c) 2000-2016 the FFmpeg developers
  built with gcc 5.4.0 (Ubuntu 5.4.0-6ubuntu1~16.04.2) 20160609
  configuration: --prefix=/home/jaroslav/ffmpeg_build --pkg-config-flags=--static --extra-cflags=-I/home/jaroslav/ffmpeg_build/include --extra-ldflags=-L/home/jaroslav/ffmpeg_build/lib --bindir=/home/jaroslav/bin --enable-gpl --enable-libass --enable-libfdk-aac --enable-libfreetype --enable-libmp3lame --enable-libopus --enable-libtheora --enable-libvorbis --enable-libvpx --enable-libx264 --enable-libx265 --enable-nvenc --enable-libmfx --enable-libxvid --enable-libgsm --enable-libopencore-amrnb --enable-version3 --enable-nonfree
  libavutil      55. 35.100 / 55. 35.100
  libavcodec     57. 66.101 / 57. 66.101
  libavformat    57. 57.100 / 57. 57.100
  libavdevice    57.  2.100 / 57.  2.100
  libavfilter     6. 66.100 /  6. 66.100
  libswscale      4.  3.100 /  4.  3.100
  libswresample   2.  4.100 /  2.  4.100
  libpostproc    54.  2.100 / 54.  2.100
Input #0, yuv4mpegpipe, from 'Input/y4m/crowd_run_2160p50.y4m':
  Duration: 00:00:10.00, start: 0.000000, bitrate: 4976642 kb/s
    Stream #0:0: Video: rawvideo (I420 / 0x30323449), yuv420p(progressive), 3840x2160, SAR 1:1 DAR 16:9, 50 fps, 50 tbr, 50 tbn, 50 tbc
[libx264 @ 0x39a11c0] using SAR=1/1
[libx264 @ 0x39a11c0] using cpu capabilities: MMX2 SSE2Fast SSSE3 SSE4.2 AVX FMA3 AVX2 LZCNT BMI2
[libx264 @ 0x39a11c0] profile High, level 5.2
[libx264 @ 0x39a11c0] 264 - core 148 - H.264/MPEG-4 AVC codec - Copyleft 2003-2016 - http://www.videolan.org/x264.html - options: cabac=1 ref=2 deblock=1:0:0 analyse=0x3:0x113 me=hex subme=4 psy=1 psy_rd=1.00:0.00 mixed_ref=0 me_range=16 chroma_me=1 trellis=1 8x8dct=1 cqm=0 deadzone=21,11 fast_pskip=1 chroma_qp_offset=0 threads=6 lookahead_threads=1 sliced_threads=0 nr=0 decimate=1 interlaced=0 bluray_compat=0 constrained_intra=0 bframes=3 b_pyramid=2 b_adapt=1 b_bias=0 direct=1 weightb=1 open_gop=0 weightp=1 keyint=250 keyint_min=25 scenecut=40 intra_refresh=0 rc_lookahead=20 rc=abr mbtree=1 bitrate=6000 ratetol=1.0 qcomp=0.60 qpmin=0 qpmax=69 qpstep=4 ip_ratio=1.40 aq=1:1.00
Output #0, matroska, to 'Output/x264/encoded/crowd_run_2160p50faster6000k.mkv':
  Metadata:
    encoder         : Lavf57.57.100
    Stream #0:0: Video: h264 (libx264) (H264 / 0x34363248), yuv420p, 3840x2160 [SAR 1:1 DAR 16:9], q=-1--1, 6000 kb/s, 50 fps, 1k tbn, 50 tbc
    Metadata:
      encoder         : Lavc57.66.101 libx264
    Side data:
      cpb: bitrate max/min/avg: 0/0/6000000 buffer size: 0 vbv_delay: -1
Stream mapping:
  Stream #0:0 -> #0:0 (rawvideo (native) -> h264 (libx264))
Press [q] to stop, [?] for help
frame=   19 fps=0.0 q=0.0 size=       0kB time=00:00:00.00 bitrate=N/A speed=   0x    frame=   22 fps= 21 q=0.0 size=       0kB time=00:00:00.00 bitrate=N/A speed=   0x    frame=   27 fps= 12 q=0.0 size=       0kB time=00:00:00.00 bitrate=N/A speed=   0x    frame=   36 fps= 13 q=44.0 size=       1kB time=00:00:00.06 bitrate=  96.1kbits/s speed=0.0224x    frame=   40 fps= 12 q=51.0 size=       1kB time=00:00:00.14 bitrate=  41.6kbits/s speed=0.0429x    frame=   49 fps= 13 q=54.0 size=       1kB time=00:00:00.32 bitrate=  18.3kbits/s speed=0.0843x    frame=   58 fps= 13 q=54.0 size=       1kB time=00:00:00.50 bitrate=  11.7kbits/s speed=0.116x    frame=   67 fps= 14 q=55.0 size=       1kB time=00:00:00.68 bitrate=   8.6kbits/s speed=0.141x    frame=   76 fps= 14 q=55.0 size=       1kB time=00:00:00.86 bitrate=   6.8kbits/s speed=0.157x    frame=   85 fps= 14 q=55.0 size=       1kB time=00:00:01.04 bitrate=   5.6kbits/s speed=0.174x    frame=   94 fps= 14 q=54.0 size=       1kB time=00:00:01.22 bitrate=   4.8kbits/s speed=0.188x    frame=  103 fps= 15 q=54.0 size=       1kB time=00:00:01.40 bitrate=   4.2kbits/s speed=0.199x    frame=  112 fps= 15 q=54.0 size=       1kB time=00:00:01.58 bitrate=   3.7kbits/s speed=0.207x    frame=  121 fps= 15 q=54.0 size=       1kB time=00:00:01.76 bitrate=   3.3kbits/s speed=0.216x    frame=  130 fps= 15 q=54.0 size=       1kB time=00:00:01.94 bitrate=   3.0kbits/s speed=0.224x    frame=  139 fps= 15 q=54.0 size=       1kB time=00:00:02.12 bitrate=   2.8kbits/s speed=0.231x    frame=  148 fps= 15 q=54.0 size=       1kB time=00:00:02.30 bitrate=   2.5kbits/s speed=0.234x    frame=  157 fps= 15 q=54.0 size=       1kB time=00:00:02.48 bitrate=   2.4kbits/s speed=0.24x    frame=  166 fps= 15 q=53.0 size=       1kB time=00:00:02.66 bitrate=   2.2kbits/s speed=0.245x    frame=  175 fps= 15 q=53.0 size=       1kB time=00:00:02.84 bitrate=   2.1kbits/s speed=0.25x    frame=  184 fps= 15 q=53.0 size=       1kB time=00:00:03.02 bitrate=   1.9kbits/s speed=0.252x    frame=  193 fps= 15 q=53.0 size=       1kB time=00:00:03.20 bitrate=   1.8kbits/s speed=0.256x    frame=  200 fps= 15 q=53.0 size=       1kB time=00:00:03.34 bitrate=   1.8kbits/s speed=0.256x    frame=  209 fps= 15 q=53.0 size=       1kB time=00:00:03.52 bitrate=   1.7kbits/s speed=0.26x    frame=  218 fps= 15 q=53.0 size=       1kB time=00:00:03.70 bitrate=   1.6kbits/s speed=0.263x    frame=  227 fps= 16 q=53.0 size=       1kB time=00:00:03.88 bitrate=   1.5kbits/s speed=0.266x    frame=  236 fps= 16 q=53.0 size=       1kB time=00:00:04.06 bitrate=   1.4kbits/s speed=0.267x    frame=  245 fps= 16 q=53.0 size=       1kB time=00:00:04.24 bitrate=   1.4kbits/s speed=0.27x    frame=  254 fps= 16 q=53.0 size=       1kB time=00:00:04.42 bitrate=   1.3kbits/s speed=0.272x    frame=  263 fps= 16 q=53.0 size=       1kB time=00:00:04.60 bitrate=   1.3kbits/s speed=0.275x    frame=  272 fps= 16 q=53.0 size=       1kB time=00:00:04.78 bitrate=   1.2kbits/s speed=0.275x    frame=  277 fps= 15 q=53.0 size=       1kB time=00:00:04.88 bitrate=   1.2kbits/s speed=0.268x    frame=  286 fps= 15 q=53.0 size=    3879kB time=00:00:05.06 bitrate=6279.2kbits/s speed=0.27x    frame=  295 fps= 15 q=53.0 size=    3879kB time=00:00:05.24 bitrate=6063.6kbits/s speed=0.273x    frame=  304 fps= 15 q=53.0 size=    3879kB time=00:00:05.42 bitrate=5862.3kbits/s speed=0.275x    frame=  313 fps= 15 q=53.0 size=    3879kB time=00:00:05.60 bitrate=5673.9kbits/s speed=0.276x    frame=  322 fps= 15 q=53.0 size=    3879kB time=00:00:05.78 bitrate=5497.2kbits/s speed=0.277x    frame=  331 fps= 15 q=53.0 size=    3879kB time=00:00:05.96 bitrate=5331.2kbits/s speed=0.278x    frame=  340 fps= 16 q=53.0 size=    3879kB time=00:00:06.14 bitrate=5174.9kbits/s speed=0.28x    frame=  349 fps= 16 q=54.0 size=    3879kB time=00:00:06.32 bitrate=5027.6kbits/s speed=0.282x    frame=  358 fps= 16 q=54.0 size=    3879kB time=00:00:06.50 bitrate=4888.4kbits/s speed=0.282x    frame=  367 fps= 16 q=54.0 size=    3879kB time=00:00:06.68 bitrate=4756.7kbits/s speed=0.283x    frame=  376 fps= 16 q=54.0 size=    3879kB time=00:00:06.86 bitrate=4631.9kbits/s speed=0.285x    frame=  385 fps= 16 q=54.0 size=    3879kB time=00:00:07.04 bitrate=4513.5kbits/s speed=0.286x    frame=  394 fps= 16 q=54.0 size=    3879kB time=00:00:07.22 bitrate=4401.0kbits/s speed=0.286x    frame=  403 fps= 16 q=54.0 size=    3879kB time=00:00:07.40 bitrate=4293.9kbits/s speed=0.287x    frame=  412 fps= 16 q=54.0 size=    3879kB time=00:00:07.58 bitrate=4192.0kbits/s speed=0.288x    frame=  420 fps= 16 q=54.0 size=    3879kB time=00:00:07.74 bitrate=4105.3kbits/s speed=0.289x    frame=  429 fps= 16 q=54.0 size=    3879kB time=00:00:07.92 bitrate=4012.0kbits/s speed=0.29x    frame=  438 fps= 16 q=54.0 size=    3879kB time=00:00:08.10 bitrate=3922.9kbits/s speed=0.29x    frame=  447 fps= 16 q=54.0 size=    3879kB time=00:00:08.28 bitrate=3837.6kbits/s speed=0.291x    frame=  452 fps= 16 q=54.0 size=    3879kB time=00:00:08.38 bitrate=3791.8kbits/s speed=0.289x    frame=  461 fps= 16 q=54.0 size=    3879kB time=00:00:08.56 bitrate=3712.1kbits/s speed=0.29x    frame=  470 fps= 16 q=54.0 size=    3879kB time=00:00:08.74 bitrate=3635.7kbits/s speed=0.291x    frame=  479 fps= 16 q=54.0 size=    3879kB time=00:00:08.92 bitrate=3562.3kbits/s speed=0.292x    frame=  487 fps= 16 q=54.0 size=    3879kB time=00:00:09.08 bitrate=3499.5kbits/s speed=0.292x    frame=  496 fps= 16 q=54.0 size=    3879kB time=00:00:09.26 bitrate=3431.5kbits/s speed=0.293x    frame=  500 fps= 15 q=-1.0 Lsize=    7815kB time=00:00:09.94 bitrate=6439.7kbits/s speed= 0.3x    
video:7810kB audio:0kB subtitle:0kB other streams:0kB global headers:0kB muxing overhead: 0.056366%
bench: utime=106.944s
bench: maxrss=1341496kB
[libx264 @ 0x39a11c0] frame I:2     Avg QP:41.13  size:180061
[libx264 @ 0x39a11c0] frame P:126   Avg QP:50.55  size: 26057
[libx264 @ 0x39a11c0] frame B:372   Avg QP:50.78  size: 11703
[libx264 @ 0x39a11c0] consecutive B-frames:  0.8%  0.0%  0.0% 99.2%
[libx264 @ 0x39a11c0] mb I  I16..4: 36.9% 54.5%  8.6%
[libx264 @ 0x39a11c0] mb P  I16..4: 12.7% 14.6%  0.0%  P16..4:  9.0%  0.8%  0.1%  0.0%  0.0%    skip:62.8%
[libx264 @ 0x39a11c0] mb B  I16..4:  0.7%  0.5%  0.0%  B16..8: 14.4%  0.5%  0.0%  direct: 6.2%  skip:77.7%  L0:46.6% L1:53.0% BI: 0.4%
[libx264 @ 0x39a11c0] final ratefactor: 45.76
[libx264 @ 0x39a11c0] 8x8 transform intra:51.9% inter:93.7%
[libx264 @ 0x39a11c0] coded y,uvDC,uvAC intra: 13.7% 52.6% 3.6% inter: 1.5% 5.5% 0.0%
[libx264 @ 0x39a11c0] i16 v,h,dc,p: 57% 22% 15%  6%
[libx264 @ 0x39a11c0] i8 v,h,dc,ddl,ddr,vr,hd,vl,hu: 13% 11% 55%  5%  3%  4%  3%  4%  3%
[libx264 @ 0x39a11c0] i4 v,h,dc,ddl,ddr,vr,hd,vl,hu: 22% 17% 12%  9%  9%  9%  8%  8%  8%
[libx264 @ 0x39a11c0] i8c dc,h,v,p: 91%  3%  5%  0%
[libx264 @ 0x39a11c0] Weighted P-Frames: Y:1.6% UV:0.0%
[libx264 @ 0x39a11c0] ref P L0: 64.3% 35.7%
[libx264 @ 0x39a11c0] ref B L0: 85.1% 14.9%
[libx264 @ 0x39a11c0] ref B L1: 95.5%  4.5%
[libx264 @ 0x39a11c0] kb/s:6397.59
